<?xml version="1.0" standalone="no"?>
<!DOCTYPE svg PUBLIC "-//W3C//DTD SVG 20010904//EN"
 "http://www.w3.org/TR/2001/REC-SVG-20010904/DTD/svg10.dtd">
<svg version="1.0" xmlns="http://www.w3.org/2000/svg"
 width="90" height="90" viewBox="0 0 1200.000000 1200.000000"
 preserveAspectRatio="xMidYMid meet">

<g transform="translate(0.000000,1200.000000) scale(0.100000,-0.100000)"
fill="#000000" stroke="none">
<path d="M0 6000 l0 -6000 6000 0 6000 0 0 6000 0 6000 -6000 0 -6000 0 0
-6000z m6210 3829 c582 -54 1172 -335 1605 -764 215 -213 367 -424 510 -710
206 -409 297 -825 282 -1295 -9 -280 -47 -495 -136 -760 -225 -672 -694 -1214
-1336 -1542 -384 -196 -771 -288 -1213 -288 -260 0 -428 21 -684 86 -340 85
-708 272 -1008 510 -200 158 -437 426 -585 659 -148 234 -292 589 -349 862
-75 355 -79 763 -11 1098 162 803 685 1492 1415 1865 353 179 690 268 1120
294 74 4 250 -3 390 -15z m-200 -5937 c87 -43 50 -162 -43 -138 -15 3 -31 15
-37 26 -13 25 -4 60 15 60 7 0 15 6 18 13 8 23 -5 37 -33 37 -37 0 -50 -37
-50 -141 l0 -79 55 0 c30 0 55 -4 55 -10 0 -5 -25 -10 -55 -10 l-55 0 0 -180
0 -180 49 0 c28 0 53 -4 56 -10 4 -7 -48 -10 -150 -10 -102 0 -154 3 -150 10
3 6 15 10 26 10 18 0 19 8 19 180 0 172 -1 180 -19 180 -11 0 -23 5 -26 10 -4
6 5 10 19 10 23 0 26 4 26 33 0 90 52 177 116 197 50 14 127 11 164 -8z m-504
-60 c98 -50 140 -144 132 -298 -10 -194 -111 -284 -302 -272 -172 11 -255 120
-244 319 8 137 59 217 164 259 66 27 190 23 250 -8z m962 14 l42 -1 0 -87 c0
-49 -2 -88 -4 -88 -2 0 -22 29 -44 65 -68 108 -144 135 -207 72 -45 -45 -58
-115 -53 -281 5 -139 17 -185 59 -225 25 -23 87 -29 107 -9 8 8 12 47 12 110
0 98 0 98 -25 98 -14 0 -25 5 -25 10 0 6 47 10 120 10 73 0 120 -4 120 -10 0
-5 -7 -10 -15 -10 -12 0 -15 -19 -15 -115 0 -63 -2 -115 -5 -115 -3 0 -13 5
-23 11 -14 9 -36 8 -90 -5 -195 -44 -336 15 -378 160 -24 85 -16 204 20 277
53 109 135 151 276 141 47 -4 104 -7 128 -8z m-2293 -6 c-3 -5 -15 -10 -26
-10 -18 0 -19 -9 -19 -207 -1 -216 -8 -261 -47 -305 -64 -73 -237 -77 -287 -7
-52 74 40 172 106 112 26 -23 25 -93 -1 -93 -23 0 -34 -23 -18 -39 6 -6 23
-11 39 -11 41 0 48 42 48 313 l0 237 -29 0 c-17 0 -33 5 -36 10 -4 6 43 10
135 10 92 0 139 -4 135 -10z m352 -183 c54 -29 77 -72 82 -155 5 -100 -4 -137
-45 -181 -83 -93 -284 -77 -341 26 -66 119 -20 277 92 319 51 18 168 13 212
-9z m2451 3 c39 -36 38 -116 -2 -142 -18 -12 -81 -9 -94 4 -7 7 -12 26 -12 44
0 23 5 33 20 37 21 6 27 31 9 43 -18 11 -55 -16 -73 -52 -12 -27 -16 -65 -16
-169 l0 -135 24 0 c14 0 28 -4 31 -10 4 -6 -40 -10 -124 -10 -81 0 -131 4
-131 10 0 6 9 10 20 10 19 0 20 7 20 180 0 173 -1 180 -20 180 -11 0 -20 5
-20 10 0 6 40 10 100 10 l100 0 0 -32 1 -33 16 27 c9 15 26 31 37 37 36 17 90
13 114 -9z m377 -6 c58 -30 85 -88 85 -178 -1 -154 -80 -226 -237 -213 -113 9
-171 68 -181 183 -8 108 37 187 124 220 54 20 159 14 209 -12z m-2505 6 c0 -5
-9 -10 -21 -10 -13 0 -19 -5 -16 -12 2 -7 22 -66 43 -130 21 -65 41 -118 44
-118 5 0 75 199 88 248 2 7 -7 12 -22 12 -14 0 -26 5 -26 10 0 6 27 10 60 10
33 0 60 -4 60 -10 0 -5 -10 -10 -22 -10 -21 0 -29 -19 -87 -188 -102 -299
-118 -337 -157 -371 -40 -35 -95 -41 -143 -16 -45 23 -57 87 -22 119 28 26 92
18 107 -12 14 -29 7 -62 -13 -62 -20 0 -12 -34 8 -38 27 -5 77 46 98 101 10
29 22 60 26 69 5 14 0 17 -31 20 l-39 3 -70 188 c-54 145 -74 187 -87 187 -10
0 -18 5 -18 10 0 6 47 10 120 10 73 0 120 -4 120 -10z m2840 1 c0 -5 -10 -11
-23 -13 l-22 -3 34 -127 c18 -71 36 -128 40 -128 5 0 52 148 55 170 0 3 -3 24
-7 48 -5 27 -12 42 -22 42 -8 0 -15 5 -15 10 0 6 42 10 105 10 63 0 105 -4
105 -10 0 -5 -7 -10 -16 -10 -10 0 -14 -6 -10 -17 2 -10 17 -65 32 -123 15
-58 30 -109 34 -113 6 -6 70 220 70 246 0 4 -11 7 -25 7 -14 0 -25 5 -25 10 0
6 25 10 55 10 30 0 55 -4 55 -10 0 -5 -8 -10 -17 -10 -15 0 -27 -34 -67 -190
l-49 -190 -58 0 -58 0 -15 55 c-9 30 -23 81 -32 113 -9 31 -19 61 -22 66 -3 5
-21 -45 -41 -110 l-37 -119 -58 0 -58 0 -61 188 c-49 151 -64 187 -79 187 -10
0 -18 5 -18 10 0 6 48 10 125 10 71 0 125 -4 125 -9z m-4990 -1171 c0 -44 3
-80 8 -80 4 1 18 7 32 15 27 15 68 19 95 9 32 -12 45 -59 45 -159 0 -88 1 -95
20 -95 11 0 20 -4 20 -10 0 -5 -25 -10 -55 -10 -59 0 -63 3 -40 26 30 30 16
195 -18 216 -20 13 -61 9 -85 -8 -20 -14 -22 -23 -22 -115 0 -81 3 -99 15 -99
8 0 15 -4 15 -10 0 -5 -26 -10 -57 -10 l-57 0 22 20 c21 20 22 29 22 185 0
158 -1 165 -20 165 -31 0 -24 15 13 27 17 5 35 11 40 12 4 0 7 -35 7 -79z
m5690 0 c0 -44 3 -80 8 -80 4 1 18 7 32 15 27 15 68 19 95 9 32 -12 45 -59 45
-159 0 -88 1 -95 20 -95 11 0 20 -4 20 -10 0 -5 -25 -10 -55 -10 -59 0 -63 3
-40 26 30 30 16 195 -18 216 -20 13 -61 9 -85 -8 -20 -14 -22 -23 -22 -115 0
-81 3 -99 15 -99 8 0 15 -4 15 -10 0 -5 -26 -10 -57 -10 l-57 0 22 20 c21 20
22 29 22 185 0 158 -1 165 -20 165 -31 0 -24 15 13 27 17 5 35 11 40 12 4 0 7
-35 7 -79z m-6122 32 c4 -28 -24 -40 -45 -19 -14 13 -14 19 -3 32 18 22 44 15
48 -13z m2050 0 c4 -28 -24 -40 -45 -19 -14 13 -14 19 -3 32 18 22 44 15 48
-13z m550 0 c4 -28 -24 -40 -45 -19 -14 13 -14 19 -3 32 18 22 44 15 48 -13z
m3160 0 c4 -28 -24 -40 -45 -19 -14 13 -14 19 -3 32 18 22 44 15 48 -13z m700
0 c4 -28 -24 -40 -45 -19 -14 13 -14 19 -3 32 18 22 44 15 48 -13z m-6676 8
c73 -21 93 -106 39 -161 -16 -16 -37 -29 -45 -29 -9 0 -16 -2 -16 -5 0 -16 96
-145 111 -150 33 -11 20 -26 -18 -23 -35 3 -42 9 -92 86 -42 64 -60 82 -78 82
-22 0 -23 -3 -23 -75 0 -68 2 -75 20 -75 11 0 20 -4 20 -10 0 -6 -27 -10 -60
-10 -63 0 -73 7 -40 28 19 11 20 23 20 172 0 153 -1 160 -20 160 -11 0 -20 5
-20 10 0 13 154 13 202 0z m5224 -100 c24 0 44 -4 44 -10 0 -5 -20 -10 -45
-10 l-45 0 0 -96 c0 -129 20 -159 78 -118 25 17 30 3 6 -20 -38 -39 -106 -28
-124 20 -6 14 -10 68 -10 120 0 87 -1 94 -20 94 -26 0 -26 17 -1 25 11 3 30
23 43 43 l23 37 3 -42 3 -43 45 0z m914 34 c0 -34 0 -34 45 -34 25 0 45 -4 45
-10 0 -5 -20 -10 -45 -10 l-45 0 -2 -57 c-6 -135 3 -173 40 -173 8 0 24 7 34
17 10 9 21 13 26 9 12 -13 -47 -56 -78 -56 -19 0 -35 9 -49 26 -18 23 -21 41
-21 130 0 97 -1 104 -20 104 -27 0 -25 8 6 32 14 12 30 32 35 45 12 33 29 20
29 -23z m-5920 -160 c0 -104 2 -124 15 -124 8 0 15 -4 15 -10 0 -5 -25 -10
-55 -10 -53 0 -72 11 -40 24 12 4 15 26 15 111 0 98 -1 105 -20 105 -11 0 -20
5 -20 10 0 6 10 10 23 10 12 0 29 4 37 9 8 6 18 7 22 5 4 -3 8 -61 8 -130z
m278 116 c34 -21 45 -63 19 -73 -23 -9 -40 8 -32 32 5 16 1 23 -19 32 -102 47
-168 -118 -84 -208 27 -29 72 -30 116 -3 44 27 37 3 -8 -27 -88 -60 -200 6
-200 117 0 113 116 186 208 130z m490 -10 c4 1 18 7 32 15 14 8 39 14 56 15
67 0 96 -56 92 -185 -1 -58 1 -71 15 -73 38 -8 13 -22 -38 -22 -53 0 -72 11
-40 24 19 7 21 159 2 196 -15 29 -58 38 -94 19 -22 -12 -23 -18 -23 -116 0
-85 3 -103 15 -103 8 0 15 -4 15 -10 0 -5 -25 -10 -55 -10 -53 0 -72 11 -40
24 12 4 15 26 15 111 0 98 -1 105 -20 105 -11 0 -20 5 -20 10 0 6 10 10 23 10
12 0 29 5 37 10 11 7 16 5 18 -5 2 -8 7 -15 10 -15z m442 15 c31 -16 43 -33
54 -77 l6 -28 -94 0 c-52 0 -98 -4 -101 -10 -9 -15 14 -89 36 -111 25 -25 75
-25 117 1 39 24 43 25 35 5 -8 -22 -76 -55 -113 -55 -126 0 -177 167 -78 256
40 37 90 44 138 19z m251 5 c13 -7 19 -7 19 0 0 5 5 10 10 10 6 0 10 -24 10
-52 l-1 -53 -15 30 c-30 57 -76 72 -108 36 -26 -29 -6 -57 62 -87 66 -29 82
-46 82 -89 0 -46 -31 -70 -88 -69 -101 2 -112 8 -112 62 0 38 15 43 24 7 9
-36 49 -59 90 -51 35 7 50 27 41 56 -3 9 -33 30 -68 46 -75 35 -97 66 -78 111
19 47 85 68 132 43z m250 0 c13 -7 19 -7 19 0 0 5 7 10 15 10 11 0 15 -12 15
-50 0 -57 -10 -64 -27 -20 -15 39 -54 57 -89 42 -20 -10 -25 -18 -22 -40 2
-22 15 -33 73 -62 68 -34 70 -36 73 -76 3 -36 -1 -45 -25 -64 -24 -19 -36 -21
-78 -16 -27 4 -58 7 -67 7 -13 0 -18 8 -18 29 0 16 -3 35 -6 44 -11 29 11 17
24 -13 27 -60 123 -66 130 -8 3 25 -2 30 -60 57 -75 33 -91 50 -91 92 0 58 78
98 134 68z m339 -126 c0 -104 2 -124 15 -124 8 0 15 -4 15 -10 0 -5 -25 -10
-55 -10 -53 0 -72 11 -40 24 12 4 15 26 15 111 0 98 -1 105 -20 105 -11 0 -20
5 -20 10 0 6 10 10 23 10 12 0 29 4 37 9 8 6 18 7 22 5 4 -3 8 -61 8 -130z
m211 126 c13 -7 19 -7 19 0 0 5 7 10 15 10 11 0 15 -12 15 -50 0 -58 -9 -63
-30 -17 -29 61 -105 62 -105 1 0 -26 8 -33 70 -64 68 -34 70 -36 73 -76 3 -36
-1 -45 -25 -64 -24 -19 -36 -21 -78 -16 -27 4 -58 7 -67 7 -13 0 -18 8 -18 29
0 16 -3 35 -6 44 -11 29 11 17 24 -13 27 -60 123 -66 130 -8 3 25 -2 30 -60
57 -71 32 -83 42 -93 82 -6 22 -1 33 23 58 32 32 76 39 113 20z m339 -126 c0
-104 2 -124 15 -124 8 0 15 -4 15 -10 0 -5 -25 -10 -55 -10 -53 0 -72 11 -40
24 12 4 15 26 15 111 0 98 -1 105 -20 105 -11 0 -20 5 -20 10 0 6 10 10 23 10
12 0 29 4 37 9 8 6 18 7 22 5 4 -3 8 -61 8 -130z m180 123 c34 17 66 16 99 -3
25 -15 30 -15 59 0 45 23 89 20 117 -9 23 -23 25 -31 25 -130 0 -98 1 -105 20
-105 11 0 20 -4 20 -10 0 -5 -25 -10 -55 -10 -59 0 -63 3 -40 26 18 19 21 135
4 183 -13 36 -46 49 -87 32 -27 -11 -27 -12 -29 -116 -1 -97 0 -105 18 -105
10 0 19 -4 19 -10 0 -5 -25 -10 -55 -10 -53 0 -72 11 -40 24 19 7 21 159 2
196 -14 28 -54 38 -87 20 -18 -10 -20 -20 -20 -115 0 -87 3 -105 15 -105 8 0
15 -4 15 -10 0 -5 -25 -10 -55 -10 -53 0 -72 11 -40 24 12 4 15 26 15 111 0
87 -3 105 -15 105 -27 0 -16 16 18 26 22 7 35 7 42 -1 7 -8 17 -7 35 2z m485
1 c36 17 76 15 103 -4 21 -14 26 -14 56 0 45 21 89 20 117 -3 22 -18 24 -28
27 -130 3 -87 7 -111 18 -111 8 0 14 -4 14 -10 0 -6 -26 -10 -57 -10 -53 1
-56 2 -39 15 34 26 34 186 0 220 -19 18 -63 19 -86 1 -15 -11 -18 -30 -18
-115 0 -94 1 -101 20 -101 11 0 20 -4 20 -10 0 -5 -25 -10 -55 -10 -59 0 -63
3 -40 26 19 19 20 158 2 194 -14 28 -54 38 -87 20 -18 -10 -20 -20 -20 -115 0
-87 3 -105 15 -105 8 0 15 -4 15 -10 0 -5 -25 -10 -55 -10 -53 0 -72 11 -40
24 12 4 15 26 15 111 0 98 -1 105 -20 105 -11 0 -20 5 -20 10 0 6 10 10 23 10
12 0 29 4 37 10 9 6 17 5 22 -2 5 -9 13 -9 33 0z m559 -9 c25 -20 26 -24 26
-130 0 -102 1 -109 20 -109 11 0 20 -4 20 -10 0 -14 -78 -12 -82 2 -3 8 -11 7
-28 -5 -66 -46 -158 5 -130 72 14 35 56 59 114 67 44 6 46 8 46 38 0 17 -7 42
-16 54 -26 38 -89 24 -89 -20 0 -16 -6 -23 -20 -23 -15 0 -20 7 -20 25 0 52
109 79 159 39z m221 7 c45 20 81 17 112 -10 26 -23 28 -28 31 -130 3 -82 7
-106 18 -106 8 0 14 -4 14 -10 0 -5 -25 -10 -55 -10 -53 0 -72 11 -40 24 22 8
21 172 -1 204 -18 26 -59 29 -92 6 -20 -14 -22 -23 -22 -115 0 -81 3 -99 15
-99 8 0 15 -4 15 -10 0 -5 -25 -10 -55 -10 -53 0 -72 11 -40 24 12 4 15 26 15
111 0 87 -3 105 -15 105 -27 0 -16 16 18 26 22 7 35 7 42 -1 7 -9 18 -8 40 1z
m405 -1 c31 -16 43 -33 54 -77 l6 -28 -94 0 c-52 0 -98 -4 -101 -10 -9 -15 14
-89 36 -111 25 -25 75 -25 117 1 39 24 43 25 35 5 -8 -23 -77 -55 -115 -55
-123 0 -173 169 -76 256 40 37 90 44 138 19z m188 -15 c4 1 18 7 32 15 14 8
39 14 56 15 67 0 96 -56 92 -185 -1 -58 1 -71 15 -73 38 -8 13 -22 -38 -22
-53 0 -72 11 -40 24 12 4 15 24 15 88 0 123 -28 158 -101 128 l-29 -12 0 -104
c0 -86 3 -104 15 -104 8 0 15 -4 15 -10 0 -5 -25 -10 -55 -10 -53 0 -72 11
-40 24 12 4 15 26 15 111 0 98 -1 105 -20 105 -11 0 -20 5 -20 10 0 6 10 10
23 10 12 0 29 5 37 10 11 7 16 5 18 -5 2 -8 7 -15 10 -15z m1122 -106 c0 -104
2 -124 15 -124 8 0 15 -4 15 -10 0 -5 -25 -10 -55 -10 -53 0 -72 11 -40 24 12
4 15 26 15 111 0 98 -1 105 -20 105 -11 0 -20 5 -20 10 0 6 10 10 23 10 12 0
29 4 37 9 8 6 18 7 22 5 4 -3 8 -61 8 -130z m700 0 c0 -104 2 -124 15 -124 8
0 15 -4 15 -10 0 -5 -25 -10 -55 -10 -53 0 -72 11 -40 24 12 4 15 26 15 111 0
98 -1 105 -20 105 -11 0 -20 5 -20 10 0 6 10 10 23 10 12 0 29 4 37 9 8 6 18
7 22 5 4 -3 8 -61 8 -130z m186 121 c56 29 116 12 134 -38 5 -16 10 -70 10
-118 0 -72 3 -89 15 -89 8 0 15 -4 15 -10 0 -6 -26 -10 -57 -10 -54 1 -57 2
-38 16 17 13 20 27 20 103 0 73 -3 93 -19 110 -23 25 -63 27 -94 5 -20 -14
-22 -23 -22 -115 0 -81 3 -99 15 -99 8 0 15 -4 15 -10 0 -6 -26 -10 -57 -10
-53 1 -56 2 -39 15 16 12 20 31 24 120 4 102 4 105 -17 105 -32 0 -25 15 12
26 24 7 35 7 43 -3 9 -11 17 -10 40 2z m840 -1 c98 -46 99 -195 2 -254 -39
-24 -76 -25 -123 -6 -89 37 -102 172 -23 242 41 38 89 44 144 18z m213 -227
c17 -21 60 -22 89 -1 20 14 22 23 22 110 0 77 -3 94 -15 94 -8 0 -15 5 -15 10
0 6 8 10 18 10 9 0 27 3 40 6 22 6 22 6 22 -120 0 -105 2 -126 15 -126 8 0 15
-4 15 -10 0 -14 -68 -12 -72 2 -3 9 -14 7 -40 -5 -50 -24 -85 -21 -113 8 -23
22 -25 31 -25 125 0 93 -1 100 -20 100 -11 0 -20 5 -20 10 0 6 10 10 23 10 12
0 29 5 37 10 13 8 16 -6 20 -104 3 -75 10 -119 19 -129z m-2369 223 c0 -5 -4
-10 -10 -10 -5 0 -10 -10 -10 -23 0 -31 40 -148 49 -143 4 3 20 45 36 95 16
50 34 91 41 91 6 0 27 -43 45 -95 18 -52 36 -95 39 -95 3 0 19 38 36 85 24 64
28 85 18 85 -8 0 -14 5 -14 10 0 6 20 10 45 10 49 0 58 -10 23 -25 -17 -8 -34
-39 -67 -127 -24 -65 -49 -118 -56 -118 -6 0 -18 19 -25 43 -7 23 -21 66 -32
96 -20 53 -21 54 -33 30 -7 -13 -23 -57 -36 -96 -13 -40 -28 -73 -35 -73 -7 0
-31 56 -54 125 -27 82 -47 125 -56 125 -8 0 -14 5 -14 10 0 6 25 10 55 10 30
0 55 -4 55 -10z m1770 1 c0 -5 -7 -11 -15 -15 -22 -8 -19 -24 24 -111 25 -51
41 -75 45 -65 3 8 18 52 34 98 27 76 28 82 11 82 -11 0 -19 5 -19 10 0 6 20
10 45 10 49 0 55 -8 26 -34 -11 -10 -40 -77 -66 -149 -78 -218 -97 -246 -151
-233 -30 8 -34 46 -4 46 12 0 20 -7 20 -16 0 -30 25 -8 51 46 l27 53 -45 96
c-25 53 -50 111 -56 130 -6 18 -17 35 -24 38 -30 12 -9 23 42 23 30 0 55 -4
55 -9z"/>
<path d="M5715 9724 c-16 -2 -70 -9 -120 -15 -654 -80 -1267 -424 -1682 -946
-317 -397 -503 -854 -554 -1358 -14 -145 -7 -465 15 -610 37 -247 119 -525
218 -735 378 -800 1139 -1351 2018 -1462 151 -19 515 -16 665 5 334 48 687
173 975 347 339 203 665 528 875 870 174 283 299 636 352 995 23 159 23 489
-1 665 -80 596 -334 1102 -762 1521 -318 309 -698 527 -1127 644 -199 54 -374
77 -617 80 -124 2 -238 1 -255 -1z m295 -964 l0 -100 58 0 c49 0 250 -34 260
-44 4 -5 41 -202 50 -273 l9 -63 -34 -6 c-19 -4 -38 -3 -42 2 -4 5 -18 37 -31
72 -39 106 -138 196 -237 215 l-33 7 0 -263 0 -262 97 -39 c110 -45 225 -117
267 -167 133 -157 125 -412 -19 -562 -79 -82 -175 -130 -307 -152 l-38 -6 0
-109 0 -110 -50 0 -50 0 0 103 0 103 -92 12 c-95 12 -213 45 -280 77 -44 22
-48 31 -83 208 -28 146 -30 166 -12 171 47 15 67 16 67 2 0 -8 19 -52 43 -98
71 -139 194 -241 320 -264 l37 -6 0 283 0 284 -121 58 c-104 50 -130 67 -198
135 -101 100 -125 156 -119 282 5 108 36 178 114 261 63 65 141 108 234 129
30 6 63 14 73 17 15 4 17 18 17 104 l0 99 50 0 50 0 0 -100z m790 -2050 l0
-160 -860 0 -860 0 0 160 0 160 860 0 860 0 0 -160z m-80 -235 c0 -8 -159
-965 -166 -998 l-6 -27 -626 2 -626 3 -62 475 c-34 261 -65 492 -68 513 l-6
37 780 0 c429 0 780 -2 780 -5z"/>
<path d="M5841 8555 c-51 -16 -84 -44 -117 -101 -50 -85 -38 -206 28 -273 34
-34 124 -91 146 -91 9 0 12 55 12 240 0 186 -3 240 -12 239 -7 0 -33 -6 -57
-14z"/>
<path d="M6010 7480 l0 -260 23 0 c36 0 125 48 147 80 50 70 67 191 37 261 -8
20 -31 55 -52 77 -37 41 -122 102 -143 102 -9 0 -12 -69 -12 -260z"/>
<path d="M6480 6710 l0 -100 90 0 90 0 0 100 0 100 -90 0 -90 0 0 -100z"/>
<path d="M6455 6368 c-13 -94 -95 -808 -95 -827 0 -18 6 -21 44 -21 l45 0 10
53 c6 28 40 219 76 422 37 204 69 380 72 393 5 21 3 22 -70 22 l-76 0 -6 -42z"/>
<path d="M5305 3818 c-14 -13 -30 -41 -35 -63 -13 -57 -12 -337 1 -391 29
-115 163 -114 190 3 12 53 11 350 -2 396 -5 20 -20 46 -31 57 -30 28 -89 27
-123 -2z"/>
<path d="M4368 3638 c-9 -16 -13 -68 -13 -168 0 -159 8 -190 50 -190 41 0 49
31 49 190 0 159 -8 190 -49 190 -15 0 -29 -9 -37 -22z"/>
<path d="M7199 3643 c-20 -23 -25 -298 -6 -333 19 -37 64 -40 77 -5 14 37 13
298 -2 330 -13 29 -48 34 -69 8z"/>
<path d="M1940 2496 c-5 -15 -10 -54 -10 -87 l0 -59 35 0 c42 0 90 22 99 45
23 61 -8 113 -71 122 -39 5 -43 3 -53 -21z"/>
<path d="M3375 2395 c-44 -43 -34 -55 44 -55 67 0 69 1 64 23 -15 58 -67 74
-108 32z"/>
<path d="M6003 2274 c-37 -19 -49 -44 -33 -74 13 -24 56 -27 88 -4 16 11 22
25 22 55 0 34 -3 39 -22 39 -13 0 -37 -8 -55 -16z"/>
<path d="M6615 2395 c-44 -43 -34 -55 44 -55 67 0 69 1 64 23 -15 58 -67 74
-108 32z"/>
<path d="M9645 2396 c-49 -49 -39 -167 17 -209 70 -52 138 42 108 151 -21 80
-77 106 -125 58z"/>
</g>
</svg>
